<svg width="138" height="26" viewBox="0 0 138 26" fill="none" xmlns="http://www.w3.org/2000/svg">
<path d="M0.448 25V0.655999H9.254C11.1807 0.655999 12.8353 1.29067 14.218 2.56C15.6007 3.80667 16.292 5.382 16.292 7.286C16.292 9.68867 15.1927 11.3773 12.994 12.352V12.488C14.2407 12.896 15.238 13.61 15.986 14.63C16.734 15.6273 17.108 16.772 17.108 18.064C17.108 20.0587 16.3827 21.7133 14.932 23.028C13.5267 24.3427 11.7927 25 9.73 25H0.448ZM3.576 3.648V11.094H9.254C10.3647 11.094 11.294 10.72 12.042 9.972C12.79 9.20133 13.164 8.32867 13.164 7.354C13.164 6.402 12.8013 5.54067 12.076 4.77C11.3507 4.022 10.4553 3.648 9.39 3.648H3.576ZM3.576 14.018V22.008H9.866C10.9993 22.008 11.9627 21.6113 12.756 20.818C13.5267 20.0247 13.912 19.084 13.912 17.996C13.912 16.9307 13.5153 16.0013 12.722 15.208C11.9287 14.4147 10.9313 14.018 9.73 14.018H3.576ZM27.5715 25.544C25.1235 25.544 23.1062 24.7053 21.5195 23.028C19.9328 21.3507 19.1395 19.2313 19.1395 16.67C19.1395 14.1313 19.9102 12.0233 21.4515 10.346C22.9928 8.646 24.9648 7.796 27.3675 7.796C29.8382 7.796 31.7988 8.60067 33.2495 10.21C34.7228 11.7967 35.4595 14.0293 35.4595 16.908L35.4255 17.248H22.3355C22.3808 18.88 22.9248 20.1947 23.9675 21.192C25.0102 22.1893 26.2568 22.688 27.7075 22.688C29.7022 22.688 31.2662 21.6907 32.3995 19.696L35.1875 21.056C34.4395 22.4613 33.3968 23.5607 32.0595 24.354C30.7448 25.1473 29.2488 25.544 27.5715 25.544ZM22.5735 14.664H32.1275C32.0368 13.508 31.5608 12.556 30.6995 11.808C29.8608 11.0373 28.7275 10.652 27.2995 10.652C26.1208 10.652 25.1008 11.0147 24.2395 11.74C23.4008 12.4653 22.8455 13.44 22.5735 14.664Z" fill="#FFB08F"/>
<path d="M38.864 25V0.655999H47.432C48.588 0.655999 49.6647 0.848666 50.662 1.234C51.682 1.59667 52.566 2.118 53.314 2.798C54.062 3.478 54.6513 4.294 55.082 5.246C55.5127 6.17533 55.728 7.20667 55.728 8.34C55.728 9.496 55.5127 10.55 55.082 11.502C54.6513 12.4313 54.062 13.236 53.314 13.916C52.566 14.596 51.682 15.1287 50.662 15.514C49.6647 15.8767 48.588 16.058 47.432 16.058H43.454V25H38.864ZM47.5 11.706C48.7013 11.706 49.608 11.366 50.22 10.686C50.832 10.006 51.138 9.224 51.138 8.34C51.138 7.90933 51.0587 7.49 50.9 7.082C50.764 6.674 50.5373 6.32267 50.22 6.028C49.9253 5.71067 49.5513 5.46133 49.098 5.28C48.6447 5.09867 48.112 5.008 47.5 5.008H43.454V11.706H47.5ZM68.045 23.232H67.773C67.2517 23.8667 66.617 24.4107 65.869 24.864C65.1437 25.3173 64.203 25.544 63.047 25.544C62.1857 25.544 61.3697 25.3967 60.599 25.102C59.851 24.83 59.1937 24.4447 58.627 23.946C58.0604 23.4473 57.6184 22.8467 57.301 22.144C56.9837 21.4413 56.825 20.6707 56.825 19.832C56.825 18.9707 56.995 18.2 57.335 17.52C57.675 16.8173 58.151 16.2167 58.763 15.718C59.375 15.2193 60.089 14.8453 60.905 14.596C61.7437 14.324 62.6504 14.188 63.625 14.188C64.713 14.188 65.6084 14.2787 66.311 14.46C67.0137 14.6187 67.5917 14.7887 68.045 14.97V14.46C68.045 13.576 67.6937 12.8507 66.991 12.284C66.2884 11.6947 65.4157 11.4 64.373 11.4C62.8317 11.4 61.5284 12.046 60.463 13.338L57.233 11.128C59.001 8.90667 61.415 7.796 64.475 7.796C67.059 7.796 69.031 8.408 70.391 9.632C71.751 10.8333 72.431 12.624 72.431 15.004V25H68.045V23.232ZM68.045 18.234C67.5237 17.9847 66.9797 17.792 66.413 17.656C65.869 17.4973 65.2684 17.418 64.611 17.418C63.5457 17.418 62.7184 17.656 62.129 18.132C61.5624 18.5853 61.279 19.152 61.279 19.832C61.279 20.512 61.551 21.056 62.095 21.464C62.6617 21.872 63.3077 22.076 64.033 22.076C64.6224 22.076 65.1664 21.974 65.665 21.77C66.1637 21.5433 66.583 21.26 66.923 20.92C67.2857 20.5573 67.5577 20.1493 67.739 19.696C67.943 19.22 68.045 18.7327 68.045 18.234ZM75.9724 8.34H80.1544V10.652H80.4264C80.6304 10.244 80.9024 9.87 81.2424 9.53C81.5824 9.19 81.9564 8.89533 82.3644 8.646C82.795 8.39667 83.2484 8.204 83.7244 8.068C84.223 7.932 84.7104 7.864 85.1864 7.864C85.7757 7.864 86.2744 7.92067 86.6824 8.034C87.113 8.14733 87.4757 8.29467 87.7704 8.476L86.5804 12.522C86.3084 12.386 86.0024 12.284 85.6624 12.216C85.345 12.1253 84.9484 12.08 84.4724 12.08C83.8604 12.08 83.305 12.2047 82.8064 12.454C82.3077 12.6807 81.877 13.0093 81.5144 13.44C81.1744 13.8707 80.9024 14.3807 80.6984 14.97C80.517 15.5367 80.4264 16.16 80.4264 16.84V25H75.9724V8.34ZM104.565 20.988C103.794 22.348 102.751 23.4473 101.437 24.286C100.145 25.1247 98.5581 25.544 96.6768 25.544C95.4074 25.544 94.2288 25.3287 93.1408 24.898C92.0754 24.4447 91.1461 23.8213 90.3528 23.028C89.5594 22.2347 88.9361 21.3053 88.4828 20.24C88.0521 19.152 87.8368 17.962 87.8368 16.67C87.8368 15.4687 88.0521 14.3353 88.4828 13.27C88.9134 12.182 89.5141 11.2413 90.2848 10.448C91.0554 9.632 91.9621 8.986 93.0048 8.51C94.0701 8.034 95.2374 7.796 96.5068 7.796C97.8441 7.796 99.0341 8.02267 100.077 8.476C101.119 8.90667 101.992 9.51867 102.695 10.312C103.397 11.0827 103.93 12.0007 104.293 13.066C104.655 14.1313 104.837 15.2873 104.837 16.534C104.837 16.6927 104.837 16.8287 104.837 16.942C104.814 17.078 104.803 17.2027 104.803 17.316C104.78 17.4293 104.769 17.554 104.769 17.69H92.2228C92.3134 18.37 92.4948 18.9593 92.7668 19.458C93.0614 19.934 93.4128 20.342 93.8208 20.682C94.2514 20.9993 94.7161 21.2373 95.2148 21.396C95.7134 21.532 96.2234 21.6 96.7448 21.6C97.7648 21.6 98.6034 21.3733 99.2608 20.92C99.9408 20.444 100.473 19.8547 100.859 19.152L104.565 20.988ZM100.519 14.528C100.496 14.2333 100.394 13.9047 100.213 13.542C100.054 13.1793 99.8048 12.8393 99.4648 12.522C99.1474 12.2047 98.7394 11.944 98.2408 11.74C97.7648 11.536 97.1868 11.434 96.5068 11.434C95.5548 11.434 94.7161 11.706 93.9908 12.25C93.2654 12.794 92.7554 13.5533 92.4608 14.528H100.519ZM111.863 10.516H112.135C112.657 9.67733 113.359 9.02 114.243 8.544C115.127 8.04533 116.136 7.796 117.269 7.796C118.312 7.796 119.23 7.966 120.023 8.306C120.817 8.646 121.463 9.13333 121.961 9.768C122.483 10.38 122.868 11.128 123.117 12.012C123.389 12.8733 123.525 13.8367 123.525 14.902V25H119.071V15.446C119.071 14.2447 118.799 13.3607 118.255 12.794C117.734 12.2047 116.963 11.91 115.943 11.91C115.331 11.91 114.787 12.046 114.311 12.318C113.858 12.5673 113.461 12.9187 113.121 13.372C112.804 13.8027 112.555 14.324 112.373 14.936C112.215 15.5253 112.135 16.16 112.135 16.84V25H107.681V8.34H111.863V10.516ZM128.178 12.148H125.254V8.34H128.178V3.24H132.632V8.34H136.712V12.148H132.632V18.608C132.632 18.9933 132.666 19.356 132.734 19.696C132.824 20.0133 132.983 20.2853 133.21 20.512C133.527 20.8747 133.98 21.056 134.57 21.056C134.955 21.056 135.261 21.022 135.488 20.954C135.714 20.8633 135.93 20.75 136.134 20.614L137.392 24.524C136.87 24.7733 136.304 24.9547 135.692 25.068C135.102 25.204 134.445 25.272 133.72 25.272C132.881 25.272 132.122 25.1473 131.442 24.898C130.784 24.626 130.229 24.2633 129.776 23.81C128.71 22.79 128.178 21.3393 128.178 19.458V12.148Z" fill="#8EBBFF"/>
</svg>
